# File created by Blade
# Date/Time:  Tue Jan 27 18:02:00 2015
#---------------------------------------------------------
:version 1.10
:name HOM
:units
  mass 1.0
  length 1.000000
  angle deg
:documentation
     Acclaim Skeleton File
:root
   axis xyz
   order TX TY TZ RX RY RZ
   position 0.000000 0.000000 0.000000
   orientation 0 0 0
:bonedata
   begin
      id 1
      name Spine_dum
      direction 0.000000 1.000000 0.000000
      length 5.195262
      axis 0.0 0.0 0.0 xyz
   end
   begin
      id 2
      name LeftUpLeg_dum
      direction 1.000000 0.000000 0.000000
      length 3.351363
      axis 0.0 0.0 0.0 xyz
   end
   begin
      id 3
      name RightUpLeg_dum
      direction -1.000000 0.000000 0.000000
      length 3.351363
      axis 0.0 0.0 0.0 xyz
   end
   begin
      id 4
      name Spine
      direction 0.000000 1.000000 0.000000
      length 0.000000
      axis 0.0 0.0 0.0 xyz
      dof rx ry rz
   end
   begin
      id 5
      name Spine_dum1
      direction 0.000000 1.000000 0.000000
      length 15.653875
      axis 0.0 0.0 0.0 xyz
   end
   begin
      id 6
      name Spine_dum2
      direction 0.000000 1.000000 0.000000
      length 10.329768
      axis 0.0 0.0 0.0 xyz
   end
   begin
      id 7
      name Spine_dum3
      direction 0.000000 1.000000 0.000000
      length 10.329768
      axis 0.0 0.0 0.0 xyz
   end
   begin
      id 8
      name Head
      direction 0.000000 1.000000 0.000000
      length 4.527550
      axis 0.0 0.0 0.0 xyz
      dof rx ry rz
   end
   begin
      id 9
      name LeftShoulder
      direction 1.000000 0.000000 0.000000
      length 6.996006
      axis 0.0 0.0 -90.0 xyz
      dof rx ry rz
   end
   begin
      id 10
      name LeftArm
      direction 1.000000 0.000000 0.000000
      length 10.209302
      axis 0.0 0.0 -90.0 xyz
      dof rx ry rz
   end
   begin
      id 11
      name LeftForeArm
      direction 1.000000 0.000000 0.000000
      length 8.563163
      axis 0.0 0.0 -90.0 xyz
      dof ry rz rx
   end
   begin
      id 12
      name LeftHand
      direction 0.000000 0.000000 0.000000
      length 0.000000
      axis 0.0 0.0 -90.0 xyz
      dof rx ry rz
   end
   begin
      id 13
      name LeftHand_dum1
      direction 0.000000 0.000000 0.000000
      length 0.000000
      axis 0.0 0.0 -90.0 xyz
   end
   begin
      id 14
      name LeftHand_dum2
      direction 1.000000 0.000000 0.000000
      length 3.937000
      axis 0.0 0.0 -90.0 xyz
   end
   begin
      id 15
      name LeftHandThumb1
      direction 0.000000 0.000000 1.000000
      length 3.937000
      axis 0.0 0.0 -90.0 xyz
      dof rx rz ry
   end
   begin
      id 16
      name RightShoulder
      direction -1.000000 0.000000 0.000000
      length 6.996006
      axis 0.0 0.0 90.0 xyz
      dof rx ry rz
   end
   begin
      id 17
      name RightArm
      direction -1.000000 0.000000 0.000000
      length 10.209302
      axis 0.0 0.0 90.0 xyz
      dof rx ry rz
   end
   begin
      id 18
      name RightForeArm
      direction -1.000000 0.000000 0.000000
      length 8.563163
      axis 0.0 0.0 90.0 xyz
      dof ry rz rx
   end
   begin
      id 19
      name RightHand
      direction 0.000000 0.000000 0.000000
      length 0.000000
      axis 0.0 0.0 90.0 xyz
      dof rx ry rz
   end
   begin
      id 20
      name RightHand_dum1
      direction 0.000000 0.000000 0.000000
      length 0.000000
      axis 0.0 0.0 90.0 xyz
   end
   begin
      id 21
      name RightHand_dum2
      direction -1.000000 0.000000 0.000000
      length 3.937000
      axis 0.0 0.0 90.0 xyz
   end
   begin
      id 22
      name RightHandThumb1
      direction 0.000000 0.000000 1.000000
      length 3.937000
      axis 0.0 0.0 90.0 xyz
      dof rx rz ry
   end
   begin
      id 23
      name LeftUpLeg
      direction 0.000000 -1.000000 0.000000
      length 16.346831
      axis 0.0 0.0 0.0 xyz
      dof rx ry rz
   end
   begin
      id 24
      name LeftLeg
      direction 0.000000 -1.000000 0.000000
      length 13.959795
      axis 0.0 0.0 0.0 xyz
      dof rx ry rz
   end
   begin
      id 25
      name LeftFoot
      direction 0.000000 -0.258819 0.965926
      length 5.165550
      axis 15.0 0.0 0.0 xyz
      dof rx ry rz
   end
   begin
      id 26
      name LeftToeBase
      direction 0.000000 0.000000 1.000000
      length 2.952750
      axis 0.0 0.0 0.0 xyz
      dof rx ry rz
   end
   begin
      id 27
      name RightUpLeg
      direction 0.000000 -1.000000 0.000000
      length 16.346831
      axis 0.0 0.0 0.0 xyz
      dof rx ry rz
   end
   begin
      id 28
      name RightLeg
      direction 0.000000 -1.000000 0.000000
      length 13.959795
      axis 0.0 0.0 0.0 xyz
      dof rx ry rz
   end
   begin
      id 29
      name RightFoot
      direction 0.000000 -0.258819 0.965926
      length 5.165550
      axis 15.0 0.0 0.0 xyz
      dof rx ry rz
   end
   begin
      id 30
      name RightToeBase
      direction 0.000000 0.000000 1.000000
      length 2.952750
      axis 0.0 0.0 0.0 xyz
      dof rx ry rz
   end
:hierarchy
   begin
      root Spine_dum LeftUpLeg_dum RightUpLeg_dum
      Spine_dum Spine
      LeftUpLeg_dum LeftUpLeg
      RightUpLeg_dum RightUpLeg
      Spine Spine_dum1 Spine_dum2 Spine_dum3
      Spine_dum1 Head
      Spine_dum2 LeftShoulder
      Spine_dum3 RightShoulder
      LeftShoulder LeftArm
      LeftArm LeftForeArm
      LeftForeArm LeftHand
      LeftHand LeftHand_dum1 LeftHand_dum2
      LeftHand_dum1 LeftHandThumb1
      RightShoulder RightArm
      RightArm RightForeArm
      RightForeArm RightHand
      RightHand RightHand_dum1 RightHand_dum2
      RightHand_dum1 RightHandThumb1
      LeftUpLeg LeftLeg
      LeftLeg LeftFoot
      LeftFoot LeftToeBase
      RightUpLeg RightLeg
      RightLeg RightFoot
      RightFoot RightToeBase
   end

# File created by Blade
# Date/Time:  Tue Jan 27 18:01:49 2015
# Frame Rate: 120.000 fps
#------------------------------------------------------
:FULLY-SPECIFIED
:DEGREES
321
root -1.187950 31.933009 -5.956343 7.061731 19.034663 4.184706
Spine -7.385649 -6.122631 -3.389880
Head 11.328439 -3.282114 7.306571
LeftShoulder -12.618841 15.652515 7.827869
LeftArm 20.830019 38.312689 -75.999168
LeftForeArm -1.242947 -0.000000 14.773686
LeftHand -11.361650 0.000000 -5.892009
LeftHandThumb1 -26.253704 0.000000 33.147579
RightShoulder -27.507560 43.584343 -66.162804
RightArm 87.546876 50.421132 102.066470
RightForeArm 45.633489 -0.000000 155.580568
RightHand 7.693670 0.000000 14.924130
RightHandThumb1 -24.326973 -0.000000 -32.862282
LeftUpLeg -1.955935 -8.074342 -0.731104
LeftLeg -0.255326 -0.000000 0.000000
LeftFoot -14.107365 12.500042 -23.161829
LeftToeBase 8.231843 -0.000000 -0.000000
RightUpLeg 3.613901 -10.335706 -3.615721
RightLeg -3.397510 -0.000000 0.000000
RightFoot -16.875478 -18.246115 11.818708
RightToeBase 4.942431 -0.000000 -0.000000
322
root -1.185672 31.933207 -5.956276 7.073895 19.029943 4.177218
Spine -7.392494 -6.130259 -3.395235
Head 11.285850 -3.307590 7.397179
LeftShoulder -12.619541 15.629490 7.836628
LeftArm 20.788105 38.284461 -76.041937
LeftForeArm -1.210587 -0.000000 14.769001
LeftHand -11.321916 -0.000000 -5.904810
LeftHandThumb1 -26.253704 0.000000 33.147579
RightShoulder -27.692356 43.834346 -66.396970
RightArm 87.240624 50.455713 102.004078
RightForeArm 45.611770 -0.000000 155.529777
RightHand 7.678486 0.000000 14.923795
RightHandThumb1 -24.326973 -0.000000 -32.862282
LeftUpLeg -1.964494 -8.074245 -0.726879
LeftLeg -0.263383 -0.000000 0.000000
LeftFoot -14.132475 12.500617 -23.183707
LeftToeBase 8.311068 -0.000000 -0.000000
RightUpLeg 3.602301 -10.329499 -3.610987
RightLeg -3.402800 -0.000000 0.000000
RightFoot -16.884668 -18.230253 11.855387
RightToeBase 5.001768 -0.000000 -0.000000
323
root -1.182779 31.934125 -5.955803 7.084471 19.018310 4.175104
Spine -7.410326 -6.124911 -3.393959
Head 11.307512 -3.341043 7.386993
LeftShoulder -12.608622 15.636565 7.826393
LeftArm 20.786558 38.262513 -76.043186
LeftForeArm -1.213505 -0.000000 14.757854
LeftHand -11.343632 -0.000000 -6.014476
LeftHandThumb1 -26.253704 0.000000 33.147579
RightShoulder -27.937383 44.129404 -66.737180
RightArm 86.747761 50.486774 101.868771
RightForeArm 45.562705 -0.000000 155.499937
RightHand 7.682180 -0.000000 15.069046
RightHandThumb1 -24.326973 -0.000000 -32.862282
LeftUpLeg -1.963226 -8.063919 -0.729219
LeftLeg -0.285618 -0.000000 0.000000
LeftFoot -14.099609 12.514460 -23.159394
LeftToeBase 8.250487 -0.000000 -0.000000
RightUpLeg 3.593330 -10.352468 -3.614719
RightLeg -3.406401 -0.000000 0.000000
RightFoot -16.860000 -18.206449 11.848934
RightToeBase 4.917243 -0.000000 -0.000000
324
root -1.179508 31.934315 -5.955534 7.094994 19.022036 4.172517
Spine -7.418378 -6.132664 -3.381335
Head 11.345305 -3.291428 7.345710
LeftShoulder -12.604983 15.630767 7.815032
LeftArm 20.775256 38.254030 -76.050364
LeftForeArm -1.216483 -0.000000 14.770377
LeftHand -11.410362 -0.000000 -5.996063
LeftHandThumb1 -26.253704 0.000000 33.147579
RightShoulder -28.140916 44.380211 -67.046125
RightArm 86.447127 50.557708 101.901318
RightForeArm 45.644269 0.000000 155.437756
RightHand 7.898936 -0.000000 15.306990
RightHandThumb1 -24.326973 -0.000000 -32.862282
LeftUpLeg -1.970512 -8.074000 -0.736215
LeftLeg -0.280623 -0.000000 0.000000
LeftFoot -14.126216 12.530074 -23.208083
LeftToeBase 8.255176 -0.000000 -0.000000
RightUpLeg 3.589055 -10.392804 -3.618930
RightLeg -3.414429 -0.000000 0.000000
RightFoot -16.847709 -18.159582 11.850706
RightToeBase 4.946949 -0.000000 -0.000000
325
root -1.178439 31.933918 -5.954596 7.105069 19.013862 4.164280
Spine -7.430796 -6.112423 -3.393851
Head 11.331138 -3.398122 7.314465
LeftShoulder -12.584367 15.627164 7.845528
LeftArm 20.770078 38.234813 -76.090341
LeftForeArm -1.202798 -0.000000 14.754797
LeftHand -11.423357 -0.000000 -5.978651
LeftHandThumb1 -26.253704 0.000000 33.147579
RightShoulder -28.318957 44.601555 -67.279126
RightArm 86.064158 50.619712 101.739337
RightForeArm 45.709202 -0.000000 155.389206
RightHand 7.726582 -0.000000 15.130991
RightHandThumb1 -24.326973 -0.000000 -32.862282
LeftUpLeg -1.977526 -8.066664 -0.725401
LeftLeg -0.291246 -0.000000 0.000000
LeftFoot -14.115444 12.524936 -23.130463
LeftToeBase 8.280854 -0.000000 -0.000000
RightUpLeg 3.579086 -10.400398 -3.612696
RightLeg -3.418532 -0.000000 0.000000
RightFoot -16.845424 -18.143140 11.861033
RightToeBase 4.964785 -0.000000 -0.000000
326
root -1.175227 31.933955 -5.952983 7.109377 19.000628 4.160398
Spine -7.423688 -6.075968 -3.388077
Head 11.294203 -3.379835 7.387867
LeftShoulder -12.573927 15.577427 7.846342
LeftArm 20.738649 38.265823 -76.104504
LeftForeArm -1.244580 -0.000000 14.760806
LeftHand -11.392578 -0.000000 -5.954103
LeftHandThumb1 -26.253704 0.000000 33.147579
RightShoulder -28.559247 44.792888 -67.605485
RightArm 85.681378 50.686917 101.623296
RightForeArm 45.761383 -0.000000 155.368013
RightHand 7.745862 0.000000 15.023699
RightHandThumb1 -24.326973 -0.000000 -32.862282
LeftUpLeg -1.971404 -8.055360 -0.732816
LeftLeg -0.297676 -0.000000 0.000000
LeftFoot -14.137871 12.536236 -23.192703
LeftToeBase 8.293306 -0.000000 -0.000000
RightUpLeg 3.573373 -10.421616 -3.615147
RightLeg -3.413427 -0.000000 0.000000
RightFoot -16.825464 -18.120604 11.823939
RightToeBase 4.930194 -0.000000 -0.000000
327
root -1.171962 31.933390 -5.953274 7.122146 18.992222 4.167206
Spine -7.427134 -6.068352 -3.406894
Head 11.284497 -3.383498 7.410794
LeftShoulder -12.564519 15.549157 7.875013
LeftArm 20.722317 38.287769 -76.137333
LeftForeArm -1.263198 -0.000000 14.762927
LeftHand -11.404370 -0.000000 -6.016887
LeftHandThumb1 -26.253704 0.000000 33.147579
RightShoulder -28.691795 44.952655 -67.793541
RightArm 85.406383 50.757995 101.500239
RightForeArm 45.834791 -0.000000 155.344124
RightHand 7.806723 0.000000 14.849559
RightHandThumb1 -24.326973 -0.000000 -32.862282
LeftUpLeg -1.980095 -8.064463 -0.740164
LeftLeg -0.306441 -0.000000 0.000000
LeftFoot -14.120649 12.547917 -23.136111
LeftToeBase 8.273940 -0.000000 -0.000000
RightUpLeg 3.563069 -10.441238 -3.628217
RightLeg -3.414682 -0.000000 0.000000
RightFoot -16.838226 -18.083864 11.841238
RightToeBase 4.941198 -0.000000 -0.000000
328
root -1.169044 31.933032 -5.953466 7.133726 18.976583 4.169845
Spine -7.438679 -6.078751 -3.417769
Head 11.302556 -3.370061 7.414732
LeftShoulder -12.576993 15.556016 7.886147
LeftArm 20.742318 38.295053 -76.152821
LeftForeArm -1.269297 -0.000000 14.754812
LeftHand -11.375050 -0.000000 -6.027479
LeftHandThumb1 -26.253704 0.000000 33.147579
RightShoulder -28.807575 45.145119 -67.986572
RightArm 85.106160 50.845938 101.377928
RightForeArm 45.980635 -0.000000 155.350469
RightHand 7.740285 0.000000 14.602335
RightHandThumb1 -24.326973 -0.000000 -32.862282
LeftUpLeg -1.989081 -8.046946 -0.748576
LeftLeg -0.305244 -0.000000 0.000000
LeftFoot -14.121378 12.543215 -23.115994
LeftToeBase 8.291213 -0.000000 -0.000000
RightUpLeg 3.548046 -10.440005 -3.636527
RightLeg -3.408689 -0.000000 0.000000
RightFoot -16.845610 -18.069016 11.841550
RightToeBase 4.944554 -0.000000 -0.000000
329
root -1.167074 31.932679 -5.952999 7.139085 18.964204 4.164667
Spine -7.445267 -6.074535 -3.426246
Head 11.320944 -3.374096 7.425971
LeftShoulder -12.573574 15.530400 7.907330
LeftArm 20.733488 38.314741 -76.179898
LeftForeArm -1.270502 -0.000000 14.754010
LeftHand -11.379912 -0.000000 -6.099047
LeftHandThumb1 -26.253704 0.000000 33.147579
RightShoulder -28.945460 45.322073 -68.192598
RightArm 84.761311 50.920027 101.209979
RightForeArm 46.090760 -0.000000 155.362231
RightHand 7.808541 -0.000000 14.463710
RightHandThumb1 -24.326973 -0.000000 -32.862282
LeftUpLeg -1.995815 -8.034808 -0.747952
LeftLeg -0.298321 -0.000000 0.000000
LeftFoot -14.134285 12.545839 -23.128692
LeftToeBase 8.255112 -0.000000 -0.000000
RightUpLeg 3.536366 -10.441343 -3.633901
RightLeg -3.398938 -0.000000 0.000000
RightFoot -16.849568 -18.064840 11.844260
RightToeBase 4.949634 -0.000000 -0.000000
330
root -1.163761 31.932123 -5.952781 7.148919 18.948911 4.172947
Spine -7.459609 -6.077746 -3.438982
Head 11.370887 -3.367925 7.363311
LeftShoulder -12.565870 15.516942 7.919553
LeftArm 20.719227 38.319111 -76.207073
LeftForeArm -1.267583 -0.000000 14.783449
LeftHand -11.396409 -0.000000 -6.143225
LeftHandThumb1 -26.253704 0.000000 33.147579
RightShoulder -29.049651 45.513472 -68.382493
RightArm 84.438017 50.999003 101.055637
RightForeArm 46.233906 -0.000000 155.380852
RightHand 7.895217 -0.000000 14.372207
RightHandThumb1 -24.326973 -0.000000 -32.862282
LeftUpLeg -1.998784 -8.052134 -0.764496
LeftLeg -0.288610 -0.000000 0.000000
LeftFoot -14.179882 12.564245 -23.204017
LeftToeBase 8.309719 -0.000000 -0.000000
RightUpLeg 3.527376 -10.411462 -3.647374
RightLeg -3.394447 -0.000000 0.000000
RightFoot -16.857040 -18.090620 11.840037
RightToeBase 4.951195 -0.000000 -0.000000
331
root -1.161642 31.931955 -5.953013 7.149196 18.932308 4.174754
Spine -7.457637 -6.079653 -3.449561
Head 11.376068 -3.357810 7.386138
LeftShoulder -12.572127 15.499705 7.923037
LeftArm 20.738995 38.350465 -76.200100
LeftForeArm -1.275423 -0.000000 14.800227
LeftHand -11.166411 -0.000000 -6.175936
LeftHandThumb1 -26.253704 0.000000 33.147579
RightShoulder -29.174076 45.682284 -68.568585
RightArm 84.115864 51.048097 100.892586
RightForeArm 46.285854 0.000000 155.417155
RightHand 7.948572 -0.000000 14.079439
RightHandThumb1 -24.326973 -0.000000 -32.862282
LeftUpLeg -2.001662 -8.035322 -0.769140
LeftLeg -0.285029 -0.000000 0.000000
LeftFoot -14.165621 12.559265 -23.138997
LeftToeBase 8.287356 -0.000000 -0.000000
RightUpLeg 3.521340 -10.407306 -3.653667
RightLeg -3.385847 -0.000000 0.000000
RightFoot -16.858631 -18.079249 11.826172
RightToeBase 4.955999 -0.000000 -0.000000
332
root -1.159341 31.930827 -5.952290 7.147465 18.911658 4.171879
Spine -7.460520 -6.079843 -3.464542
Head 11.371880 -3.415127 7.365749
LeftShoulder -12.580953 15.501259 7.942026
LeftArm 20.769300 38.367688 -76.211327
LeftForeArm -1.253948 -0.000000 14.809847
LeftHand -11.108544 -0.000000 -6.230135
LeftHandThumb1 -26.253704 0.000000 33.147579
RightShoulder -29.289004 45.860188 -68.732690
RightArm 83.825539 51.101820 100.779293
RightForeArm 46.355366 -0.000000 155.452805
RightHand 8.034040 0.000000 13.964101
RightHandThumb1 -24.326973 -0.000000 -32.862282
LeftUpLeg -1.995871 -8.034910 -0.769503
LeftLeg -0.286578 -0.000000 0.000000
LeftFoot -14.194623 12.549180 -23.180770
LeftToeBase 8.334173 -0.000000 -0.000000
RightUpLeg 3.517352 -10.398144 -3.656652
RightLeg -3.377804 -0.000000 0.000000
RightFoot -16.876423 -18.073538 11.822777
RightToeBase 4.996489 -0.000000 -0.000000
333
root -1.155008 31.930661 -5.950330 7.135072 18.897211 4.174412
Spine -7.456638 -6.073748 -3.468961
Head 11.384298 -3.430182 7.334246
LeftShoulder -12.570822 15.482508 7.940867
LeftArm 20.786388 38.429159 -76.197690
LeftForeArm -1.262340 0.000000 14.826647
LeftHand -11.112657 -0.000000 -6.230919
LeftHandThumb1 -26.253704 0.000000 33.147579
RightShoulder -29.436273 46.046410 -68.961424
RightArm 83.490081 51.158013 100.674517
RightForeArm 46.377887 -0.000000 155.519123
RightHand 8.110329 -0.000000 13.854647
RightHandThumb1 -24.326973 -0.000000 -32.862282
LeftUpLeg -1.976143 -8.044917 -0.783942
LeftLeg -0.281999 -0.000000 0.000000
LeftFoot -14.205102 12.576386 -23.158904
LeftToeBase 8.325498 -0.000000 -0.000000
RightUpLeg 3.538071 -10.396474 -3.672509
RightLeg -3.384561 -0.000000 0.000000
RightFoot -16.879263 -18.044636 11.849481
RightToeBase 4.981883 -0.000000 -0.000000
